<?xml version="1.0" standalone="no"?>
<!DOCTYPE svg PUBLIC "-//W3C//DTD SVG 20010904//EN"
 "http://www.w3.org/TR/2001/REC-SVG-20010904/DTD/svg10.dtd">
<svg version="1.0" xmlns="http://www.w3.org/2000/svg"
 width="3000.000000pt" height="3000.000000pt" viewBox="0 0 3000.000000 3000.000000"
 preserveAspectRatio="xMidYMid meet">
<metadata>
Created by potrace 1.14, written by Peter Selinger 2001-2017
</metadata>
<g transform="translate(0.000000,3000.000000) scale(0.100000,-0.100000)"
fill="#000000" stroke="none">
<path d="M14767 21664 c-1 -1 -63 -5 -137 -8 -74 -4 -151 -9 -170 -11 -19 -2
-62 -7 -95 -10 -33 -2 -76 -7 -95 -10 -19 -2 -57 -7 -85 -10 -27 -3 -61 -7
-75 -10 -14 -2 -45 -7 -70 -10 -25 -3 -55 -7 -66 -9 -12 -2 -39 -7 -60 -10
-22 -4 -64 -11 -94 -16 -30 -6 -68 -13 -85 -16 -272 -48 -791 -198 -1125 -327
-297 -114 -718 -320 -990 -485 -109 -66 -314 -195 -320 -202 -3 -3 -41 -30
-85 -60 -44 -30 -84 -58 -90 -62 -5 -4 -62 -47 -125 -95 -104 -78 -267 -208
-280 -222 -3 -3 -34 -31 -70 -61 -149 -125 -490 -461 -620 -610 -40 -47 -76
-87 -80 -90 -3 -3 -54 -63 -112 -135 -334 -413 -608 -841 -836 -1308 -45 -92
-82 -169 -82 -172 0 -2 -13 -32 -29 -67 -77 -165 -193 -480 -290 -788 -67
-213 -161 -640 -196 -893 -3 -27 -8 -57 -10 -67 -2 -10 -6 -47 -10 -82 -3 -35
-8 -70 -10 -78 -2 -8 -7 -51 -10 -95 -4 -44 -8 -96 -10 -115 -24 -245 -24
-945 0 -1072 2 -10 6 -53 9 -96 3 -42 8 -86 10 -97 2 -11 7 -49 11 -85 3 -36
8 -76 10 -90 3 -14 11 -70 20 -125 8 -55 17 -111 20 -125 3 -14 12 -63 21
-110 50 -266 110 -493 205 -785 28 -82 51 -154 52 -160 4 -15 55 -149 99 -260
122 -307 268 -601 477 -957 77 -131 322 -495 380 -564 14 -17 35 -44 46 -60
35 -49 225 -279 301 -364 97 -109 145 -159 255 -269 187 -188 342 -331 474
-437 33 -26 62 -51 65 -54 3 -3 46 -37 95 -76 746 -580 1586 -989 2500 -1218
112 -28 428 -93 490 -101 22 -2 51 -7 65 -9 34 -7 100 -17 130 -21 34 -4 138
-16 175 -21 17 -2 57 -6 90 -9 33 -3 78 -7 100 -10 103 -11 331 -19 540 -19
211 0 511 11 554 19 10 2 56 6 102 10 46 3 91 8 99 10 8 2 42 6 75 9 33 4 71
8 85 11 14 2 43 6 66 9 33 4 184 30 359 62 201 36 686 168 860 234 28 10 84
30 125 45 41 15 84 31 95 36 11 4 60 24 109 44 211 84 542 242 719 344 48 28
90 51 92 51 2 0 47 27 100 60 53 33 98 60 100 60 11 0 359 239 468 321 175
132 404 322 528 439 151 142 348 344 458 470 41 47 77 87 81 90 16 14 189 231
282 356 459 617 811 1314 1029 2044 56 184 129 478 155 615 9 50 18 99 20 110
10 53 34 195 39 234 3 23 7 55 9 70 3 14 7 47 10 73 3 27 10 87 16 135 24 208
34 412 34 693 0 200 -10 504 -19 549 -1 9 -6 52 -9 96 -14 164 -47 405 -82
585 -8 41 -16 86 -19 100 -4 20 -25 119 -30 140 -10 42 -16 69 -20 85 -38 167
-93 360 -159 558 -54 163 -135 379 -147 392 -5 5 -9 15 -9 22 0 34 -246 551
-329 691 -17 29 -31 55 -31 57 0 6 -163 275 -217 358 -125 193 -328 468 -487
657 -80 95 -100 118 -211 239 -89 97 -319 325 -414 411 -46 41 -89 80 -95 85
-66 59 -264 221 -371 301 -160 121 -486 343 -570 389 -11 5 -54 30 -95 54 -41
24 -100 58 -131 76 -94 54 -387 199 -524 260 -71 31 -143 63 -160 70 -267 118
-893 311 -1175 361 -14 3 -68 13 -120 24 -107 22 -134 27 -205 35 -27 4 -57 8
-65 10 -27 7 -228 32 -325 40 -38 3 -86 8 -105 10 -105 13 -762 29 -773 19z
m603 -688 c63 -4 131 -9 150 -11 19 -2 64 -6 100 -10 88 -8 296 -36 365 -49
11 -2 40 -7 65 -11 69 -11 80 -13 155 -29 39 -9 81 -17 95 -20 28 -5 194 -46
285 -71 33 -9 69 -18 80 -20 88 -19 476 -157 675 -241 500 -212 986 -503 1415
-847 55 -45 102 -83 105 -87 3 -3 21 -18 40 -34 304 -248 731 -717 988 -1086
37 -52 70 -99 75 -105 33 -41 210 -331 287 -470 98 -176 235 -468 306 -650 20
-49 40 -99 44 -110 36 -85 125 -360 170 -524 88 -319 148 -638 185 -981 34
-310 39 -868 10 -1145 -2 -16 -6 -61 -10 -100 -3 -38 -10 -97 -15 -130 -5 -33
-12 -82 -15 -110 -13 -113 -71 -411 -106 -550 -12 -44 -23 -89 -25 -100 -18
-93 -123 -420 -207 -645 -70 -186 -215 -500 -326 -705 -96 -175 -370 -610
-400 -635 -4 -3 -14 -17 -23 -31 -20 -31 -230 -300 -255 -327 -10 -10 -43 -48
-73 -82 -180 -208 -461 -485 -644 -635 -27 -22 -54 -45 -60 -50 -31 -29 -244
-191 -336 -257 -332 -234 -632 -407 -990 -570 -431 -196 -884 -340 -1370 -433
-41 -8 -341 -53 -392 -59 -104 -13 -135 -16 -183 -20 -447 -38 -955 -24 -1405
40 -207 29 -617 116 -775 164 -569 175 -909 320 -1388 594 -560 320 -1190 859
-1592 1361 -22 28 -45 55 -51 60 -25 22 -225 299 -325 450 -202 305 -356 593
-524 980 -41 94 -91 228 -155 415 -60 175 -163 560 -185 690 -3 19 -10 53 -15
75 -5 22 -11 58 -14 80 -4 22 -11 65 -16 95 -14 83 -33 224 -45 345 -4 33 -8
74 -10 91 -11 91 -19 325 -19 519 0 240 8 409 29 620 11 116 13 136 29 245 24
159 25 164 57 325 157 778 456 1497 896 2153 76 113 240 339 268 368 5 6 21
26 35 44 14 19 39 50 55 69 17 20 41 49 55 65 178 210 485 517 650 652 19 16
40 34 45 40 14 16 193 157 305 240 183 136 450 309 615 398 39 21 75 42 80 46
31 23 390 197 505 244 36 15 79 33 95 40 227 100 774 269 1001 310 16 2 65 12
108 21 166 33 388 66 541 80 33 3 78 8 100 10 22 2 99 7 170 11 72 3 131 7
132 8 6 5 481 -2 583 -8z"/>
<path d="M14480 16615 c-25 -19 -49 -38 -55 -43 -5 -4 -37 -28 -70 -52 -33
-25 -62 -47 -65 -51 -3 -3 -124 -96 -270 -208 -323 -247 -315 -241 -348 -268
-15 -11 -92 -71 -172 -132 -80 -61 -154 -118 -165 -126 -112 -87 -238 -185
-265 -205 -18 -14 -67 -51 -108 -82 -41 -32 -77 -58 -81 -58 -3 0 -19 42 -36
93 -39 119 -123 284 -205 398 -65 93 -190 226 -269 289 -171 137 -409 250
-591 283 -80 15 -107 20 -125 24 -23 6 -1345 12 -1360 6 -7 -2 -9 -495 -8
-1456 0 -798 2 -1457 2 -1462 1 -11 1264 -13 1336 -2 22 3 60 9 85 12 107 14
257 61 378 116 284 130 521 352 664 619 36 68 94 212 103 258 4 15 8 34 10 42
2 8 4 21 4 28 2 24 24 11 139 -78 65 -50 149 -115 187 -144 225 -174 421 -324
547 -421 78 -60 148 -114 155 -120 6 -5 61 -48 123 -95 103 -78 294 -224 330
-253 142 -111 184 -139 196 -131 7 5 118 90 247 189 128 99 246 190 263 202
16 12 40 31 54 42 14 11 108 84 210 163 231 177 210 161 544 418 153 118 289
223 302 233 l24 19 0 -550 c0 -431 3 -551 13 -554 10 -3 1830 -3 1848 1 3 0 6
134 6 296 l0 295 -612 0 c-482 0 -614 3 -617 13 -2 6 -3 532 -3 1167 l1 1156
-338 0 c-297 0 -338 -2 -339 -16 -1 -8 -2 -256 -3 -551 l-1 -535 -35 -30 c-19
-17 -82 -69 -140 -115 -58 -47 -181 -147 -275 -223 -93 -76 -185 -150 -204
-164 -18 -15 -38 -32 -45 -37 -6 -6 -119 -98 -251 -205 -132 -107 -321 -260
-420 -340 -99 -80 -185 -149 -191 -153 -7 -4 -39 18 -75 49 -35 31 -78 68 -94
83 -17 14 -63 55 -104 90 l-73 65 30 25 c17 14 66 53 109 87 43 33 167 130
277 215 109 85 221 172 250 193 75 58 380 299 386 306 3 3 31 25 64 49 32 24
66 51 76 60 9 9 61 50 114 91 54 41 118 91 141 110 23 19 59 48 79 63 21 16
36 32 34 37 -2 4 -57 52 -123 105 -111 90 -167 136 -205 168 -76 65 -120 97
-130 97 -7 0 -42 -23 -79 -52 -191 -150 -760 -596 -782 -613 -34 -25 -537
-421 -564 -443 -12 -9 -49 -39 -83 -65 l-63 -49 -67 58 c-37 32 -71 62 -77 68
-5 6 -35 32 -65 58 -30 25 -72 61 -93 80 l-37 33 112 85 c62 46 115 87 118 90
3 3 59 45 125 95 66 49 125 93 130 98 6 4 37 28 70 53 33 25 67 50 75 57 14
11 301 228 655 495 83 62 157 118 165 125 8 7 39 30 68 51 43 31 51 41 40 51
-7 6 -62 52 -123 101 -136 109 -122 98 -230 188 -49 41 -94 75 -100 76 -5 0
-30 -16 -55 -35z m-2890 -739 c235 -53 456 -240 565 -480 93 -204 109 -478 39
-688 -60 -184 -180 -354 -318 -452 -64 -46 -150 -93 -182 -101 -10 -3 -50 -14
-89 -24 -61 -17 -108 -19 -375 -20 l-306 -1 0 890 0 891 316 -4 c173 -2 331
-7 350 -11z"/>
<path d="M18314 16475 c-2 -5 -2 -665 -1 -1465 l2 -1455 933 0 932 0 0 297 0
298 -595 0 -595 0 0 1168 0 1168 -336 0 c-223 0 -337 -4 -340 -11z"/>
</g>
</svg>
